<?xml version="1.0" standalone="no"?>
<!DOCTYPE svg PUBLIC "-//W3C//DTD SVG 20010904//EN"
 "http://www.w3.org/TR/2001/REC-SVG-20010904/DTD/svg10.dtd">
<svg version="1.0" xmlns="http://www.w3.org/2000/svg"
 width="194.000000pt" height="175.000000pt" viewBox="0 0 194.000000 175.000000"
 preserveAspectRatio="xMidYMid meet">
<metadata>
Created by potrace 1.10, written by Peter Selinger 2001-2011
</metadata>
<g transform="translate(0.000000,175.000000) scale(0.100000,-0.100000)"
fill="#000000" stroke="none">
<path d="M458 1236 c-94 -34 -133 -92 -126 -191 5 -74 33 -119 92 -146 38 -17
72 -19 421 -19 230 0 395 -4 417 -10 46 -13 68 -43 68 -90 0 -26 -7 -43 -26
-61 -25 -24 -29 -24 -232 -27 -172 -3 -210 -6 -224 -19 -23 -21 -23 -46 0 -66
16 -15 46 -17 208 -17 139 0 204 4 240 15 113 33 165 151 115 260 -22 48 -43
68 -96 92 -36 16 -80 18 -418 21 -207 1 -388 2 -402 2 -36 0 -65 33 -65 74 0
89 20 96 268 96 180 0 200 2 215 18 22 24 21 45 -1 65 -16 15 -46 17 -218 17
-140 -1 -210 -5 -236 -14z m-28 -86 c-36 -36 -40 -45 -40 -88 0 -54 17 -85 64
-113 37 -23 18 -26 -25 -3 -76 39 -76 188 0 229 43 23 43 17 1 -25z m890 -245
c46 -24 60 -52 60 -123 0 -59 -2 -66 -34 -98 -19 -19 -41 -34 -49 -34 -8 0 5
19 31 45 43 44 44 47 40 95 -5 53 -23 81 -73 111 -36 23 -16 25 25 4z"/>
</g>
</svg>
